<svg width="27" height="27" viewBox="0 0 27 27" fill="none" xmlns="http://www.w3.org/2000/svg">
    <g filter="url(#filter0_i_149_26980)">
        <path fill-rule="evenodd" clip-rule="evenodd"
            d="M0.0117188 5.52141C0.0117188 2.91846 2.93018 0 5.53308 0H20.7168C23.3196 0 26.2382 2.91846 26.2382 5.52141V20.7052C26.2382 23.3079 23.3196 26.2265 20.7168 26.2265C19.5501 26.2265 6.5367 26.2739 5.5327 26.2739C2.93018 26.2739 0.0117188 23.3079 0.0117188 20.7052V5.52141ZM11.0544 3.68099C9.92252 3.68099 3.69266 9.9077 3.69266 11.0428C3.69266 12.4231 3.69266 13.8034 3.69266 15.1837C3.69266 16.318 9.92252 22.5456 11.0544 22.5456C12.4349 22.5456 13.8151 22.5456 15.1955 22.5456C16.3278 22.5456 22.5572 16.318 22.5572 15.1837C22.5572 13.8034 22.5572 12.4231 22.5572 11.0428C22.5572 9.9077 16.3278 3.68099 15.1955 3.68099C13.8151 3.68099 12.4349 3.68099 11.0544 3.68099Z"
            fill="black" />
        <path fill-rule="evenodd" clip-rule="evenodd"
            d="M0.0117188 5.52141C0.0117188 2.91846 2.93018 0 5.53308 0H20.7168C23.3196 0 26.2382 2.91846 26.2382 5.52141V20.7052C26.2382 23.3079 23.3196 26.2265 20.7168 26.2265C19.5501 26.2265 6.5367 26.2739 5.5327 26.2739C2.93018 26.2739 0.0117188 23.3079 0.0117188 20.7052V5.52141ZM11.0544 3.68099C9.92252 3.68099 3.69266 9.9077 3.69266 11.0428C3.69266 12.4231 3.69266 13.8034 3.69266 15.1837C3.69266 16.318 9.92252 22.5456 11.0544 22.5456C12.4349 22.5456 13.8151 22.5456 15.1955 22.5456C16.3278 22.5456 22.5572 16.318 22.5572 15.1837C22.5572 13.8034 22.5572 12.4231 22.5572 11.0428C22.5572 9.9077 16.3278 3.68099 15.1955 3.68099C13.8151 3.68099 12.4349 3.68099 11.0544 3.68099Z"
            fill="url(#paint0_linear_149_26980)" fill-opacity="0.26" />
    </g>
    <path
        d="M0.161719 5.52141C0.161719 4.27249 0.864987 2.92807 1.90238 1.89067C2.93977 0.853267 4.28419 0.15 5.53308 0.15H20.7168C21.9656 0.15 23.31 0.853266 24.3475 1.89067C25.3849 2.92807 26.0882 4.2725 26.0882 5.52141V20.7052C26.0882 21.954 25.3849 23.2984 24.3475 24.3358C23.31 25.3732 21.9656 26.0765 20.7168 26.0765C20.1331 26.0765 16.5877 26.0884 13.0632 26.1002L12.6736 26.1015C9.28399 26.1129 6.01587 26.1239 5.5327 26.1239C4.28483 26.1239 2.94067 25.4096 1.90293 24.3601C0.86527 23.3107 0.161719 21.9543 0.161719 20.7052V5.52141ZM11.0544 3.53099C10.9537 3.53099 10.841 3.56445 10.7265 3.61318C10.6092 3.66308 10.4772 3.73468 10.3342 3.82322C10.0479 4.00039 9.70622 4.25242 9.33227 4.55505C8.58375 5.16083 7.69491 5.97847 6.84302 6.83015C5.99114 7.68184 5.1732 8.57058 4.56717 9.31926C4.2644 9.69329 4.01226 10.0351 3.835 10.3216C3.74642 10.4648 3.67478 10.5969 3.62486 10.7143C3.5761 10.829 3.54266 10.9419 3.54266 11.0428V11.0509V11.0589V11.067V11.0751V11.0832V11.0913V11.0994V11.1075V11.1156V11.1237V11.1317V11.1398V11.1479V11.156V11.1641V11.1722V11.1803V11.1884V11.1964V11.2045V11.2126V11.2207V11.2288V11.2369V11.245V11.2531V11.2611V11.2692V11.2773V11.2854V11.2935V11.3016V11.3097V11.3178V11.3259V11.3339V11.342V11.3501V11.3582V11.3663V11.3744V11.3825V11.3906V11.3986V11.4067V11.4148V11.4229V11.431V11.4391V11.4472V11.4553V11.4633V11.4714V11.4795V11.4876V11.4957V11.5038V11.5119V11.52V11.5281V11.5361V11.5442V11.5523V11.5604V11.5685V11.5766V11.5847V11.5928V11.6008V11.6089V11.617V11.6251V11.6332V11.6413V11.6494V11.6575V11.6655V11.6736V11.6817V11.6898V11.6979V11.706V11.7141V11.7222V11.7303V11.7383V11.7464V11.7545V11.7626V11.7707V11.7788V11.7869V11.795V11.803V11.8111V11.8192V11.8273V11.8354V11.8435V11.8516V11.8597V11.8677V11.8758V11.8839V11.892V11.9001V11.9082V11.9163V11.9244V11.9324V11.9405V11.9486V11.9567V11.9648V11.9729V11.981V11.9891V11.9972V12.0052V12.0133V12.0214V12.0295V12.0376V12.0457V12.0538V12.0619V12.0699V12.078V12.0861V12.0942V12.1023V12.1104V12.1185V12.1266V12.1346V12.1427V12.1508V12.1589V12.167V12.1751V12.1832V12.1913V12.1993V12.2074V12.2155V12.2236V12.2317V12.2398V12.2479V12.256V12.264V12.2721V12.2802V12.2883V12.2964V12.3045V12.3126V12.3207V12.3288V12.3368V12.3449V12.353V12.3611V12.3692V12.3773V12.3854V12.3935V12.4015V12.4096V12.4177V12.4258V12.4339V12.442V12.4501V12.4582V12.4662V12.4743V12.4824V12.4905V12.4986V12.5067V12.5148V12.5229V12.5309V12.539V12.5471V12.5552V12.5633V12.5714V12.5795V12.5876V12.5956V12.6037V12.6118V12.6199V12.628V12.6361V12.6442V12.6523V12.6603V12.6684V12.6765V12.6846V12.6927V12.7008V12.7089V12.717V12.725V12.7331V12.7412V12.7493V12.7574V12.7655V12.7736V12.7817V12.7898V12.7978V12.8059V12.814V12.8221V12.8302V12.8383V12.8464V12.8545V12.8625V12.8706V12.8787V12.8868V12.8949V12.903V12.9111V12.9192V12.9272V12.9353V12.9434V12.9515V12.9596V12.9677V12.9758V12.9839V12.9919V13V13.0081V13.0162V13.0243V13.0324V13.0405V13.0486V13.0566V13.0647V13.0728V13.0809V13.089V13.0971V13.1052V13.1133V13.1213V13.1294V13.1375V13.1456V13.1537V13.1618V13.1699V13.178V13.186V13.1941V13.2022V13.2103V13.2184V13.2265V13.2346V13.2427V13.2508V13.2588V13.2669V13.275V13.2831V13.2912V13.2993V13.3074V13.3155V13.3235V13.3316V13.3397V13.3478V13.3559V13.364V13.3721V13.3802V13.3882V13.3963V13.4044V13.4125V13.4206V13.4287V13.4368V13.4449V13.4529V13.461V13.4691V13.4772V13.4853V13.4934V13.5015V13.5096V13.5176V13.5257V13.5338V13.5419V13.55V13.5581V13.5662V13.5743V13.5823V13.5904V13.5985V13.6066V13.6147V13.6228V13.6309V13.639V13.647V13.6551V13.6632V13.6713V13.6794V13.6875V13.6956V13.7037V13.7118V13.7198V13.7279V13.736V13.7441V13.7522V13.7603V13.7684V13.7765V13.7845V13.7926V13.8007V13.8088V13.8169V13.825V13.8331V13.8412V13.8492V13.8573V13.8654V13.8735V13.8816V13.8897V13.8978V13.9059V13.9139V13.922V13.9301V13.9382V13.9463V13.9544V13.9625V13.9706V13.9786V13.9867V13.9948V14.0029V14.011V14.0191V14.0272V14.0353V14.0433V14.0514V14.0595V14.0676V14.0757V14.0838V14.0919V14.1V14.1081V14.1161V14.1242V14.1323V14.1404V14.1485V14.1566V14.1647V14.1728V14.1808V14.1889V14.197V14.2051V14.2132V14.2213V14.2294V14.2375V14.2455V14.2536V14.2617V14.2698V14.2779V14.286V14.2941V14.3022V14.3102V14.3183V14.3264V14.3345V14.3426V14.3507V14.3588V14.3669V14.3749V14.383V14.3911V14.3992V14.4073V14.4154V14.4235V14.4316V14.4397V14.4477V14.4558V14.4639V14.472V14.4801V14.4882V14.4963V14.5044V14.5124V14.5205V14.5286V14.5367V14.5448V14.5529V14.561V14.5691V14.5771V14.5852V14.5933V14.6014V14.6095V14.6176V14.6257V14.6338V14.6418V14.6499V14.658V14.6661V14.6742V14.6823V14.6904V14.6985V14.7066V14.7146V14.7227V14.7308V14.7389V14.747V14.7551V14.7632V14.7713V14.7793V14.7874V14.7955V14.8036V14.8117V14.8198V14.8279V14.836V14.844V14.8521V14.8602V14.8683V14.8764V14.8845V14.8926V14.9007V14.9088V14.9168V14.9249V14.933V14.9411V14.9492V14.9573V14.9654V14.9735V14.9815V14.9896V14.9977V15.0058V15.0139V15.022V15.0301V15.0382V15.0463V15.0543V15.0624V15.0705V15.0786V15.0867V15.0948V15.1029V15.111V15.119V15.1271V15.1352V15.1433V15.1514V15.1595V15.1676V15.1757V15.1837C3.54266 15.2846 3.57611 15.3974 3.62487 15.5121C3.67479 15.6294 3.74642 15.7615 3.83501 15.9047C4.01227 16.1911 4.26441 16.5329 4.56717 16.9069C5.1732 17.6555 5.99114 18.5443 6.84302 19.3961C7.69491 20.2478 8.58374 21.0655 9.33226 21.6714C9.70621 21.9741 10.0479 22.2261 10.3342 22.4033C10.4772 22.4919 10.6092 22.5635 10.7265 22.6134C10.841 22.6621 10.9537 22.6956 11.0544 22.6956H11.0625H11.0706H11.0787H11.0868H11.0949H11.103H11.1111H11.1191H11.1272H11.1353H11.1434H11.1515H11.1596H11.1677H11.1758H11.1838H11.1919H11.2H11.2081H11.2162H11.2243H11.2324H11.2405H11.2486H11.2566H11.2647H11.2728H11.2809H11.289H11.2971H11.3052H11.3133H11.3214H11.3294H11.3375H11.3456H11.3537H11.3618H11.3699H11.378H11.3861H11.3941H11.4022H11.4103H11.4184H11.4265H11.4346H11.4427H11.4508H11.4589H11.4669H11.475H11.4831H11.4912H11.4993H11.5074H11.5155H11.5236H11.5316H11.5397H11.5478H11.5559H11.564H11.5721H11.5802H11.5883H11.5964H11.6044H11.6125H11.6206H11.6287H11.6368H11.6449H11.653H11.6611H11.6691H11.6772H11.6853H11.6934H11.7015H11.7096H11.7177H11.7258H11.7339H11.7419H11.75H11.7581H11.7662H11.7743H11.7824H11.7905H11.7986H11.8066H11.8147H11.8228H11.8309H11.839H11.8471H11.8552H11.8633H11.8713H11.8794H11.8875H11.8956H11.9037H11.9118H11.9199H11.928H11.9361H11.9441H11.9522H11.9603H11.9684H11.9765H11.9846H11.9927H12.0008H12.0088H12.0169H12.025H12.0331H12.0412H12.0493H12.0574H12.0655H12.0735H12.0816H12.0897H12.0978H12.1059H12.114H12.1221H12.1302H12.1383H12.1463H12.1544H12.1625H12.1706H12.1787H12.1868H12.1949H12.203H12.211H12.2191H12.2272H12.2353H12.2434H12.2515H12.2596H12.2677H12.2757H12.2838H12.2919H12.3H12.3081H12.3162H12.3243H12.3324H12.3405H12.3485H12.3566H12.3647H12.3728H12.3809H12.389H12.3971H12.4052H12.4132H12.4213H12.4294H12.4375H12.4456H12.4537H12.4618H12.4699H12.4779H12.486H12.4941H12.5022H12.5103H12.5184H12.5265H12.5346H12.5426H12.5507H12.5588H12.5669H12.575H12.5831H12.5912H12.5993H12.6074H12.6154H12.6235H12.6316H12.6397H12.6478H12.6559H12.664H12.6721H12.6801H12.6882H12.6963H12.7044H12.7125H12.7206H12.7287H12.7368H12.7448H12.7529H12.761H12.7691H12.7772H12.7853H12.7934H12.8015H12.8095H12.8176H12.8257H12.8338H12.8419H12.85H12.8581H12.8662H12.8742H12.8823H12.8904H12.8985H12.9066H12.9147H12.9228H12.9309H12.939H12.947H12.9551H12.9632H12.9713H12.9794H12.9875H12.9956H13.0037H13.0117H13.0198H13.0279H13.036H13.0441H13.0522H13.0603H13.0684H13.0764H13.0845H13.0926H13.1007H13.1088H13.1169H13.125H13.1331H13.1411H13.1492H13.1573H13.1654H13.1735H13.1816H13.1897H13.1978H13.2058H13.2139H13.222H13.2301H13.2382H13.2463H13.2544H13.2625H13.2705H13.2786H13.2867H13.2948H13.3029H13.311H13.3191H13.3272H13.3353H13.3433H13.3514H13.3595H13.3676H13.3757H13.3838H13.3919H13.4H13.408H13.4161H13.4242H13.4323H13.4404H13.4485H13.4566H13.4647H13.4727H13.4808H13.4889H13.497H13.5051H13.5132H13.5213H13.5294H13.5374H13.5455H13.5536H13.5617H13.5698H13.5779H13.586H13.5941H13.6021H13.6102H13.6183H13.6264H13.6345H13.6426H13.6507H13.6588H13.6669H13.6749H13.683H13.6911H13.6992H13.7073H13.7154H13.7235H13.7316H13.7396H13.7477H13.7558H13.7639H13.772H13.7801H13.7882H13.7963H13.8043H13.8124H13.8205H13.8286H13.8367H13.8448H13.8529H13.861H13.869H13.8771H13.8852H13.8933H13.9014H13.9095H13.9176H13.9257H13.9337H13.9418H13.9499H13.958H13.9661H13.9742H13.9823H13.9904H13.9984H14.0065H14.0146H14.0227H14.0308H14.0389H14.047H14.0551H14.0632H14.0712H14.0793H14.0874H14.0955H14.1036H14.1117H14.1198H14.1279H14.1359H14.144H14.1521H14.1602H14.1683H14.1764H14.1845H14.1926H14.2006H14.2087H14.2168H14.2249H14.233H14.2411H14.2492H14.2573H14.2653H14.2734H14.2815H14.2896H14.2977H14.3058H14.3139H14.322H14.33H14.3381H14.3462H14.3543H14.3624H14.3705H14.3786H14.3867H14.3948H14.4028H14.4109H14.419H14.4271H14.4352H14.4433H14.4514H14.4595H14.4675H14.4756H14.4837H14.4918H14.4999H14.508H14.5161H14.5242H14.5322H14.5403H14.5484H14.5565H14.5646H14.5727H14.5808H14.5889H14.597H14.605H14.6131H14.6212H14.6293H14.6374H14.6455H14.6536H14.6617H14.6697H14.6778H14.6859H14.694H14.7021H14.7102H14.7183H14.7264H14.7344H14.7425H14.7506H14.7587H14.7668H14.7749H14.783H14.7911H14.7991H14.8072H14.8153H14.8234H14.8315H14.8396H14.8477H14.8558H14.8639H14.8719H14.88H14.8881H14.8962H14.9043H14.9124H14.9205H14.9286H14.9366H14.9447H14.9528H14.9609H14.969H14.9771H14.9852H14.9933H15.0014H15.0094H15.0175H15.0256H15.0337H15.0418H15.0499H15.058H15.0661H15.0741H15.0822H15.0903H15.0984H15.1065H15.1146H15.1227H15.1308H15.1388H15.1469H15.155H15.1631H15.1712H15.1793H15.1874H15.1955C15.2962 22.6956 15.409 22.6621 15.5235 22.6134C15.6407 22.5635 15.7728 22.4919 15.9158 22.4033C16.2021 22.2261 16.5438 21.9741 16.9178 21.6714C17.6663 21.0655 18.5552 20.2478 19.407 19.3961C20.2589 18.5443 21.0768 17.6555 21.6828 16.9069C21.9855 16.5329 22.2377 16.1911 22.4149 15.9047C22.5035 15.7615 22.5751 15.6294 22.625 15.5121C22.6738 15.3974 22.7072 15.2846 22.7072 15.1837V15.1757V15.1676V15.1595V15.1514V15.1433V15.1352V15.1271V15.119V15.111V15.1029V15.0948V15.0867V15.0786V15.0705V15.0624V15.0543V15.0463V15.0382V15.0301V15.022V15.0139V15.0058V14.9977V14.9896V14.9815V14.9735V14.9654V14.9573V14.9492V14.9411V14.933V14.9249V14.9168V14.9088V14.9007V14.8926V14.8845V14.8764V14.8683V14.8602V14.8521V14.844V14.836V14.8279V14.8198V14.8117V14.8036V14.7955V14.7874V14.7793V14.7713V14.7632V14.7551V14.747V14.7389V14.7308V14.7227V14.7146V14.7066V14.6985V14.6904V14.6823V14.6742V14.6661V14.658V14.6499V14.6418V14.6338V14.6257V14.6176V14.6095V14.6014V14.5933V14.5852V14.5771V14.5691V14.561V14.5529V14.5448V14.5367V14.5286V14.5205V14.5124V14.5044V14.4963V14.4882V14.4801V14.472V14.4639V14.4558V14.4477V14.4397V14.4316V14.4235V14.4154V14.4073V14.3992V14.3911V14.383V14.3749V14.3669V14.3588V14.3507V14.3426V14.3345V14.3264V14.3183V14.3102V14.3022V14.2941V14.286V14.2779V14.2698V14.2617V14.2536V14.2455V14.2375V14.2294V14.2213V14.2132V14.2051V14.197V14.1889V14.1808V14.1728V14.1647V14.1566V14.1485V14.1404V14.1323V14.1242V14.1161V14.1081V14.1V14.0919V14.0838V14.0757V14.0676V14.0595V14.0514V14.0433V14.0353V14.0272V14.0191V14.011V14.0029V13.9948V13.9867V13.9786V13.9706V13.9625V13.9544V13.9463V13.9382V13.9301V13.922V13.9139V13.9059V13.8978V13.8897V13.8816V13.8735V13.8654V13.8573V13.8492V13.8412V13.8331V13.825V13.8169V13.8088V13.8007V13.7926V13.7845V13.7765V13.7684V13.7603V13.7522V13.7441V13.736V13.7279V13.7198V13.7118V13.7037V13.6956V13.6875V13.6794V13.6713V13.6632V13.6551V13.647V13.639V13.6309V13.6228V13.6147V13.6066V13.5985V13.5904V13.5823V13.5743V13.5662V13.5581V13.55V13.5419V13.5338V13.5257V13.5176V13.5096V13.5015V13.4934V13.4853V13.4772V13.4691V13.461V13.4529V13.4449V13.4368V13.4287V13.4206V13.4125V13.4044V13.3963V13.3882V13.3802V13.3721V13.364V13.3559V13.3478V13.3397V13.3316V13.3235V13.3155V13.3074V13.2993V13.2912V13.2831V13.275V13.2669V13.2588V13.2508V13.2427V13.2346V13.2265V13.2184V13.2103V13.2022V13.1941V13.186V13.178V13.1699V13.1618V13.1537V13.1456V13.1375V13.1294V13.1213V13.1133V13.1052V13.0971V13.089V13.0809V13.0728V13.0647V13.0566V13.0486V13.0405V13.0324V13.0243V13.0162V13.0081V13V12.9919V12.9839V12.9758V12.9677V12.9596V12.9515V12.9434V12.9353V12.9272V12.9192V12.9111V12.903V12.8949V12.8868V12.8787V12.8706V12.8625V12.8545V12.8464V12.8383V12.8302V12.8221V12.814V12.8059V12.7978V12.7898V12.7817V12.7736V12.7655V12.7574V12.7493V12.7412V12.7331V12.725V12.717V12.7089V12.7008V12.6927V12.6846V12.6765V12.6684V12.6603V12.6523V12.6442V12.6361V12.628V12.6199V12.6118V12.6037V12.5956V12.5876V12.5795V12.5714V12.5633V12.5552V12.5471V12.539V12.5309V12.5229V12.5148V12.5067V12.4986V12.4905V12.4824V12.4743V12.4662V12.4582V12.4501V12.442V12.4339V12.4258V12.4177V12.4096V12.4015V12.3935V12.3854V12.3773V12.3692V12.3611V12.353V12.3449V12.3368V12.3288V12.3207V12.3126V12.3045V12.2964V12.2883V12.2802V12.2721V12.264V12.256V12.2479V12.2398V12.2317V12.2236V12.2155V12.2074V12.1993V12.1913V12.1832V12.1751V12.167V12.1589V12.1508V12.1427V12.1346V12.1266V12.1185V12.1104V12.1023V12.0942V12.0861V12.078V12.0699V12.0619V12.0538V12.0457V12.0376V12.0295V12.0214V12.0133V12.0052V11.9972V11.9891V11.981V11.9729V11.9648V11.9567V11.9486V11.9405V11.9324V11.9244V11.9163V11.9082V11.9001V11.892V11.8839V11.8758V11.8677V11.8597V11.8516V11.8435V11.8354V11.8273V11.8192V11.8111V11.803V11.795V11.7869V11.7788V11.7707V11.7626V11.7545V11.7464V11.7383V11.7303V11.7222V11.7141V11.706V11.6979V11.6898V11.6817V11.6736V11.6655V11.6575V11.6494V11.6413V11.6332V11.6251V11.617V11.6089V11.6008V11.5928V11.5847V11.5766V11.5685V11.5604V11.5523V11.5442V11.5361V11.5281V11.52V11.5119V11.5038V11.4957V11.4876V11.4795V11.4714V11.4633V11.4553V11.4472V11.4391V11.431V11.4229V11.4148V11.4067V11.3986V11.3906V11.3825V11.3744V11.3663V11.3582V11.3501V11.342V11.3339V11.3259V11.3178V11.3097V11.3016V11.2935V11.2854V11.2773V11.2692V11.2611V11.2531V11.245V11.2369V11.2288V11.2207V11.2126V11.2045V11.1964V11.1884V11.1803V11.1722V11.1641V11.156V11.1479V11.1398V11.1317V11.1237V11.1156V11.1075V11.0994V11.0913V11.0832V11.0751V11.067V11.0589V11.0509V11.0428C22.7072 10.9419 22.6738 10.829 22.625 10.7143C22.5751 10.5969 22.5035 10.4648 22.4149 10.3216C22.2377 10.0351 21.9855 9.69329 21.6828 9.31926C21.0768 8.57059 20.2589 7.68184 19.407 6.83016C18.5552 5.97847 17.6663 5.16083 16.9178 4.55505C16.5438 4.25241 16.2021 4.00039 15.9158 3.82322C15.7727 3.73467 15.6407 3.66307 15.5235 3.61318C15.4089 3.56444 15.2962 3.53099 15.1955 3.53099H15.1874H15.1793H15.1712H15.1631H15.155H15.1469H15.1388H15.1308H15.1227H15.1146H15.1065H15.0984H15.0903H15.0822H15.0741H15.0661H15.058H15.0499H15.0418H15.0337H15.0256H15.0175H15.0094H15.0014H14.9933H14.9852H14.9771H14.969H14.9609H14.9528H14.9447H14.9366H14.9286H14.9205H14.9124H14.9043H14.8962H14.8881H14.88H14.8719H14.8639H14.8558H14.8477H14.8396H14.8315H14.8234H14.8153H14.8072H14.7991H14.7911H14.783H14.7749H14.7668H14.7587H14.7506H14.7425H14.7344H14.7264H14.7183H14.7102H14.7021H14.694H14.6859H14.6778H14.6697H14.6617H14.6536H14.6455H14.6374H14.6293H14.6212H14.6131H14.605H14.597H14.5889H14.5808H14.5727H14.5646H14.5565H14.5484H14.5403H14.5322H14.5242H14.5161H14.508H14.4999H14.4918H14.4837H14.4756H14.4675H14.4595H14.4514H14.4433H14.4352H14.4271H14.419H14.4109H14.4028H14.3948H14.3867H14.3786H14.3705H14.3624H14.3543H14.3462H14.3381H14.33H14.322H14.3139H14.3058H14.2977H14.2896H14.2815H14.2734H14.2653H14.2573H14.2492H14.2411H14.233H14.2249H14.2168H14.2087H14.2006H14.1926H14.1845H14.1764H14.1683H14.1602H14.1521H14.144H14.1359H14.1279H14.1198H14.1117H14.1036H14.0955H14.0874H14.0793H14.0712H14.0632H14.0551H14.047H14.0389H14.0308H14.0227H14.0146H14.0065H13.9984H13.9904H13.9823H13.9742H13.9661H13.958H13.9499H13.9418H13.9337H13.9257H13.9176H13.9095H13.9014H13.8933H13.8852H13.8771H13.869H13.861H13.8529H13.8448H13.8367H13.8286H13.8205H13.8124H13.8043H13.7963H13.7882H13.7801H13.772H13.7639H13.7558H13.7477H13.7396H13.7316H13.7235H13.7154H13.7073H13.6992H13.6911H13.683H13.6749H13.6669H13.6588H13.6507H13.6426H13.6345H13.6264H13.6183H13.6102H13.6021H13.5941H13.586H13.5779H13.5698H13.5617H13.5536H13.5455H13.5374H13.5294H13.5213H13.5132H13.5051H13.497H13.4889H13.4808H13.4727H13.4647H13.4566H13.4485H13.4404H13.4323H13.4242H13.4161H13.408H13.4H13.3919H13.3838H13.3757H13.3676H13.3595H13.3514H13.3433H13.3353H13.3272H13.3191H13.311H13.3029H13.2948H13.2867H13.2786H13.2705H13.2625H13.2544H13.2463H13.2382H13.2301H13.222H13.2139H13.2058H13.1978H13.1897H13.1816H13.1735H13.1654H13.1573H13.1492H13.1411H13.1331H13.125H13.1169H13.1088H13.1007H13.0926H13.0845H13.0764H13.0684H13.0603H13.0522H13.0441H13.036H13.0279H13.0198H13.0117H13.0037H12.9956H12.9875H12.9794H12.9713H12.9632H12.9551H12.947H12.939H12.9309H12.9228H12.9147H12.9066H12.8985H12.8904H12.8823H12.8742H12.8662H12.8581H12.85H12.8419H12.8338H12.8257H12.8176H12.8095H12.8015H12.7934H12.7853H12.7772H12.7691H12.761H12.7529H12.7448H12.7368H12.7287H12.7206H12.7125H12.7044H12.6963H12.6882H12.6801H12.6721H12.664H12.6559H12.6478H12.6397H12.6316H12.6235H12.6154H12.6074H12.5993H12.5912H12.5831H12.575H12.5669H12.5588H12.5507H12.5426H12.5346H12.5265H12.5184H12.5103H12.5022H12.4941H12.486H12.4779H12.4699H12.4618H12.4537H12.4456H12.4375H12.4294H12.4213H12.4132H12.4052H12.3971H12.389H12.3809H12.3728H12.3647H12.3566H12.3485H12.3405H12.3324H12.3243H12.3162H12.3081H12.3H12.2919H12.2838H12.2757H12.2677H12.2596H12.2515H12.2434H12.2353H12.2272H12.2191H12.211H12.203H12.1949H12.1868H12.1787H12.1706H12.1625H12.1544H12.1463H12.1383H12.1302H12.1221H12.114H12.1059H12.0978H12.0897H12.0816H12.0735H12.0655H12.0574H12.0493H12.0412H12.0331H12.025H12.0169H12.0088H12.0008H11.9927H11.9846H11.9765H11.9684H11.9603H11.9522H11.9441H11.9361H11.928H11.9199H11.9118H11.9037H11.8956H11.8875H11.8794H11.8713H11.8633H11.8552H11.8471H11.839H11.8309H11.8228H11.8147H11.8066H11.7986H11.7905H11.7824H11.7743H11.7662H11.7581H11.75H11.7419H11.7339H11.7258H11.7177H11.7096H11.7015H11.6934H11.6853H11.6772H11.6691H11.6611H11.653H11.6449H11.6368H11.6287H11.6206H11.6125H11.6044H11.5964H11.5883H11.5802H11.5721H11.564H11.5559H11.5478H11.5397H11.5316H11.5236H11.5155H11.5074H11.4993H11.4912H11.4831H11.475H11.4669H11.4589H11.4508H11.4427H11.4346H11.4265H11.4184H11.4103H11.4022H11.3941H11.3861H11.378H11.3699H11.3618H11.3537H11.3456H11.3375H11.3294H11.3214H11.3133H11.3052H11.2971H11.289H11.2809H11.2728H11.2647H11.2566H11.2486H11.2405H11.2324H11.2243H11.2162H11.2081H11.2H11.1919H11.1838H11.1758H11.1677H11.1596H11.1515H11.1434H11.1353H11.1272H11.1191H11.1111H11.103H11.0949H11.0868H11.0787H11.0706H11.0625H11.0544Z"
        stroke="#525252" stroke-width="0.3" />
    <defs>
        <filter id="filter0_i_149_26980" x="0.0117188" y="0" width="26.2266" height="27.2734"
            filterUnits="userSpaceOnUse" color-interpolation-filters="sRGB">
            <feFlood flood-opacity="0" result="BackgroundImageFix" />
            <feBlend mode="normal" in="SourceGraphic" in2="BackgroundImageFix" result="shape" />
            <feColorMatrix in="SourceAlpha" type="matrix"
                values="0 0 0 0 0 0 0 0 0 0 0 0 0 0 0 0 0 0 127 0" result="hardAlpha" />
            <feOffset dy="1" />
            <feGaussianBlur stdDeviation="0.5" />
            <feComposite in2="hardAlpha" operator="arithmetic" k2="-1" k3="1" />
            <feColorMatrix type="matrix"
                values="0 0 0 0 0.138688 0 0 0 0 0.138688 0 0 0 0 0.138688 0 0 0 0.75 0" />
            <feBlend mode="normal" in2="shape" result="effect1_innerShadow_149_26980" />
        </filter>
        <linearGradient id="paint0_linear_149_26980" x1="13.125" y1="0" x2="13.125" y2="28.8571"
            gradientUnits="userSpaceOnUse">
            <stop stop-color="white" />
            <stop offset="1" stop-color="white" stop-opacity="0" />
        </linearGradient>
    </defs>
</svg>
    